<svg xmlns="http://www.w3.org/2000/svg" xmlns:xlink="http://www.w3.org/1999/xlink" width="1000" zoomAndPan="magnify" viewBox="0 0 750 225" height="300" preserveAspectRatio="xMidYMid meet" version="1.0"><defs><g/><clipPath id="2a78508ba1"><path d="M 137 136 L 249.925781 136 L 249.925781 180 L 137 180 Z M 137 136 " clip-rule="nonzero"/></clipPath><clipPath id="3213fb0d4d"><path d="M 35 106 L 217 106 L 217 202.5 L 35 202.5 Z M 35 106 " clip-rule="nonzero"/></clipPath><clipPath id="b396d7df86"><path d="M 34 90 L 163 90 L 163 202.5 L 34 202.5 Z M 34 90 " clip-rule="nonzero"/></clipPath><clipPath id="87e39d20a1"><path d="M 87 22.5 L 147 22.5 L 147 82 L 87 82 Z M 87 22.5 " clip-rule="nonzero"/></clipPath></defs><g fill="#000000" fill-opacity="1"><g transform="translate(287.823036, 154.725)"><g><path d="M 42.875 -87.5 C 54.875 -87.5 64.894531 -83.289062 72.9375 -74.875 C 80.976562 -66.457031 85 -56.082031 85 -43.75 C 85 -31.414062 80.976562 -21.039062 72.9375 -12.625 C 64.894531 -4.207031 54.875 0 42.875 0 L 8.125 0 L 8.125 -87.5 Z M 42.875 -16.5 C 50.457031 -16.5 56.625 -19.019531 61.375 -24.0625 C 66.125 -29.101562 68.5 -35.664062 68.5 -43.75 C 68.5 -51.832031 66.125 -58.394531 61.375 -63.4375 C 56.625 -68.476562 50.457031 -71 42.875 -71 L 25.375 -71 L 25.375 -16.5 Z M 42.875 -16.5 "/></g></g></g><g fill="#000000" fill-opacity="1"><g transform="translate(376.942466, 154.725)"><g><path d="M 48.625 -62.5 L 64.75 -62.5 L 64.75 0 L 48.625 0 L 48.625 -7 C 44.707031 -1.164062 38.5 1.75 30 1.75 C 23.164062 1.75 17.519531 -0.539062 13.0625 -5.125 C 8.601562 -9.707031 6.375 -16.039062 6.375 -24.125 L 6.375 -62.5 L 22.5 -62.5 L 22.5 -26.125 C 22.5 -21.957031 23.625 -18.769531 25.875 -16.5625 C 28.125 -14.351562 31.125 -13.25 34.875 -13.25 C 39.039062 -13.25 42.375 -14.539062 44.875 -17.125 C 47.375 -19.707031 48.625 -23.582031 48.625 -28.75 Z M 48.625 -62.5 "/></g></g></g><g fill="#000000" fill-opacity="1"><g transform="translate(449.062958, 154.725)"><g><path d="M 42.125 -64.25 C 48.957031 -64.25 54.601562 -61.957031 59.0625 -57.375 C 63.519531 -52.789062 65.75 -46.457031 65.75 -38.375 L 65.75 0 L 49.625 0 L 49.625 -36.375 C 49.625 -40.539062 48.5 -43.726562 46.25 -45.9375 C 44 -48.144531 41 -49.25 37.25 -49.25 C 33.082031 -49.25 29.75 -47.957031 27.25 -45.375 C 24.75 -42.789062 23.5 -38.914062 23.5 -33.75 L 23.5 0 L 7.375 0 L 7.375 -62.5 L 23.5 -62.5 L 23.5 -55.5 C 27.414062 -61.332031 33.625 -64.25 42.125 -64.25 Z M 42.125 -64.25 "/></g></g></g><g fill="#000000" fill-opacity="1"><g transform="translate(521.183439, 154.725)"><g><path d="M 21 -24.625 C 23.164062 -16.789062 29.039062 -12.875 38.625 -12.875 C 44.789062 -12.875 49.457031 -14.957031 52.625 -19.125 L 65.625 -11.625 C 59.457031 -2.707031 50.375 1.75 38.375 1.75 C 28.039062 1.75 19.75 -1.375 13.5 -7.625 C 7.25 -13.875 4.125 -21.75 4.125 -31.25 C 4.125 -40.664062 7.207031 -48.519531 13.375 -54.8125 C 19.539062 -61.101562 27.457031 -64.25 37.125 -64.25 C 46.289062 -64.25 53.851562 -61.082031 59.8125 -54.75 C 65.769531 -48.414062 68.75 -40.582031 68.75 -31.25 C 68.75 -29.164062 68.539062 -26.957031 68.125 -24.625 Z M 20.75 -37.125 L 52.625 -37.125 C 51.707031 -41.375 49.8125 -44.539062 46.9375 -46.625 C 44.0625 -48.707031 40.789062 -49.75 37.125 -49.75 C 32.789062 -49.75 29.207031 -48.644531 26.375 -46.4375 C 23.539062 -44.226562 21.664062 -41.125 20.75 -37.125 Z M 20.75 -37.125 "/></g></g></g><g fill="#93603e" fill-opacity="1"><g transform="translate(593.811308, 154.725)"><g><path d="M 40.75 1.75 C 31 1.75 23 -1 16.75 -6.5 C 10.5 -12 7.375 -19.375 7.375 -28.625 L 7.375 -87.5 L 24.5 -87.5 L 24.5 -30 C 24.5 -25.414062 25.8125 -21.789062 28.4375 -19.125 C 31.0625 -16.457031 35.164062 -15.125 40.75 -15.125 C 46.332031 -15.125 50.4375 -16.457031 53.0625 -19.125 C 55.6875 -21.789062 57 -25.414062 57 -30 L 57 -87.5 L 74.25 -87.5 L 74.25 -28.625 C 74.25 -19.375 71.125 -12 64.875 -6.5 C 58.625 -1 50.582031 1.75 40.75 1.75 Z M 40.75 1.75 "/></g></g></g><g fill="#93603e" fill-opacity="1"><g transform="translate(675.431208, 154.725)"><g><path d="M 8.125 -87.5 L 25.375 -87.5 L 25.375 0 L 8.125 0 Z M 8.125 -87.5 "/></g></g></g><g clip-path="url(#2a78508ba1)"><path fill="#cea472" d="M 249.132812 136.792969 C 245.421875 144.894531 240.820312 152.457031 235.320312 159.472656 C 229.820312 166.488281 223.578125 172.765625 216.589844 178.304688 L 214.828125 179.605469 C 191.390625 179.871094 172.265625 179.78125 168.058594 179.0625 C 155.503906 176.863281 120.726562 158.894531 146.929688 145.792969 C 146.929688 145.792969 151.558594 144.984375 158.691406 143.894531 L 162.035156 143.386719 C 176.722656 141.238281 199.015625 138.460938 214.527344 138.761719 C 233.351562 139.128906 240.855469 136.246094 249.132812 136.792969 Z M 249.132812 136.792969 " fill-opacity="1" fill-rule="nonzero"/></g><path fill="#c18156" d="M 238.988281 154.375 C 232.6875 163.4375 225.203125 171.390625 216.535156 178.234375 L 214.777344 179.535156 C 206.226562 186.070312 196.925781 191.25 186.867188 195.078125 C 176.300781 193.988281 164.324219 192.652344 152.226562 191.125 C 120.109375 187.203125 87.550781 182.066406 82.832031 177.691406 C 77.300781 172.414062 92.9375 157.523438 106.179688 146.460938 C 109.703125 143.578125 112.890625 140.957031 115.601562 138.847656 C 116.234375 138.355469 135.289062 140.273438 156.332031 142.699219 L 162.054688 143.367188 C 182.535156 145.792969 203.453125 148.519531 210.179688 149.875 C 222.277344 152.300781 225.339844 152.511719 238.988281 154.375 Z M 238.988281 154.375 " fill-opacity="1" fill-rule="nonzero"/><g clip-path="url(#3213fb0d4d)"><path fill="#93603e" d="M 216.589844 178.304688 L 214.828125 179.605469 C 206.28125 186.140625 196.976562 191.320312 186.917969 195.148438 C 179.050781 198.152344 170.941406 200.230469 162.601562 201.390625 C 157.386719 202.136719 152.144531 202.503906 146.875 202.5 C 145.203125 202.5 143.535156 202.460938 141.863281 202.386719 C 140.195312 202.308594 138.527344 202.199219 136.863281 202.046875 C 135.199219 201.898438 133.539062 201.710938 131.882812 201.488281 C 130.230469 201.261719 128.578125 201.003906 126.933594 200.707031 C 125.289062 200.40625 123.652344 200.074219 122.023438 199.703125 C 120.394531 199.332031 118.773438 198.925781 117.164062 198.484375 C 115.554688 198.039062 113.953125 197.5625 112.363281 197.046875 C 110.773438 196.535156 109.195312 195.984375 107.632812 195.402344 C 106.066406 194.816406 104.515625 194.195312 102.976562 193.542969 C 101.441406 192.890625 99.917969 192.203125 98.410156 191.480469 C 96.90625 190.757812 95.414062 190.003906 93.941406 189.214844 C 92.46875 188.429688 91.015625 187.609375 89.578125 186.753906 C 88.140625 185.902344 86.726562 185.019531 85.328125 184.101562 C 83.933594 183.1875 82.558594 182.238281 81.203125 181.261719 C 79.847656 180.285156 78.515625 179.277344 77.207031 178.242188 C 75.898438 177.203125 74.613281 176.140625 73.351562 175.042969 C 72.089844 173.949219 70.855469 172.828125 69.640625 171.679688 C 68.429688 170.53125 67.246094 169.355469 66.085938 168.152344 C 64.929688 166.949219 63.796875 165.722656 62.691406 164.46875 C 61.589844 163.21875 60.515625 161.941406 59.46875 160.640625 C 58.421875 159.339844 57.402344 158.015625 56.414062 156.671875 C 55.429688 155.324219 54.472656 153.957031 53.542969 152.570312 C 52.617188 151.179688 51.722656 149.773438 50.859375 148.34375 C 49.996094 146.914062 49.164062 145.46875 48.367188 144.003906 C 47.566406 142.539062 46.804688 141.054688 46.070312 139.554688 C 45.339844 138.054688 44.640625 136.539062 43.976562 135.007812 C 43.308594 133.476562 42.679688 131.933594 42.085938 130.375 C 41.488281 128.816406 40.929688 127.242188 40.402344 125.660156 C 39.878906 124.078125 39.390625 122.480469 38.9375 120.875 C 38.480469 119.269531 38.0625 117.65625 37.683594 116.03125 C 37.300781 114.40625 36.957031 112.773438 36.648438 111.132812 C 36.339844 109.496094 36.066406 107.847656 35.832031 106.195312 C 43.351562 106.582031 71.207031 116.886719 71.207031 116.886719 C 71.207031 116.886719 77.898438 118.03125 86.828125 119.929688 C 98.238281 122.355469 113.347656 125.996094 122.539062 129.988281 C 137.226562 136.351562 145.324219 137.425781 156.332031 142.699219 C 157.105469 143.050781 157.863281 143.457031 158.691406 143.878906 C 159.183594 144.125 159.675781 144.40625 160.1875 144.6875 C 173.289062 151.71875 166.175781 141.046875 186.9375 155.675781 C 205.25 168.597656 208.277344 172.660156 216.589844 178.304688 Z M 216.589844 178.304688 " fill-opacity="1" fill-rule="nonzero"/></g><g clip-path="url(#b396d7df86)"><path fill="#3f3a36" d="M 162.671875 201.390625 C 157.457031 202.136719 152.214844 202.503906 146.945312 202.5 C 145.273438 202.5 143.601562 202.460938 141.933594 202.386719 C 140.261719 202.3125 138.59375 202.203125 136.929688 202.054688 C 135.265625 201.90625 133.605469 201.71875 131.949219 201.496094 C 130.292969 201.273438 128.640625 201.011719 126.996094 200.714844 C 125.351562 200.417969 123.710938 200.085938 122.082031 199.714844 C 120.453125 199.347656 118.832031 198.941406 117.21875 198.5 C 115.605469 198.054688 114.007812 197.578125 112.414062 197.066406 C 110.824219 196.550781 109.246094 196.003906 107.679688 195.417969 C 106.113281 194.835938 104.5625 194.214844 103.023438 193.5625 C 101.484375 192.910156 99.960938 192.222656 98.453125 191.5 C 96.949219 190.78125 95.457031 190.027344 93.984375 189.238281 C 92.507812 188.449219 91.054688 187.628906 89.617188 186.777344 C 88.179688 185.925781 86.761719 185.039062 85.363281 184.125 C 83.964844 183.210938 82.589844 182.261719 81.234375 181.285156 C 79.878906 180.308594 78.546875 179.300781 77.238281 178.265625 C 75.925781 177.226562 74.640625 176.160156 73.378906 175.066406 C 72.117188 173.972656 70.878906 172.851562 69.667969 171.703125 C 68.453125 170.554688 67.269531 169.378906 66.109375 168.175781 C 64.949219 166.972656 63.816406 165.746094 62.710938 164.492188 C 61.609375 163.238281 60.53125 161.960938 59.484375 160.660156 C 58.4375 159.359375 57.417969 158.035156 56.429688 156.691406 C 55.441406 155.34375 54.484375 153.976562 53.558594 152.589844 C 52.628906 151.199219 51.734375 149.789062 50.871094 148.359375 C 50.007812 146.933594 49.175781 145.484375 48.375 144.019531 C 47.574219 142.550781 46.808594 141.070312 46.078125 139.570312 C 45.34375 138.070312 44.644531 136.554688 43.980469 135.019531 C 43.316406 133.488281 42.683594 131.945312 42.089844 130.386719 C 41.492188 128.824219 40.933594 127.253906 40.40625 125.667969 C 39.882812 124.082031 39.390625 122.488281 38.9375 120.882812 C 38.484375 119.277344 38.066406 117.660156 37.683594 116.035156 C 37.300781 114.410156 36.957031 112.777344 36.648438 111.136719 C 36.339844 109.496094 36.066406 107.847656 35.832031 106.195312 C 35.105469 101.113281 34.734375 96 34.722656 90.863281 C 45.289062 92.21875 63.039062 96.246094 75.980469 108.164062 C 79.917969 111.789062 83.535156 115.710938 86.828125 119.929688 C 94.101562 129.160156 98.855469 138.09375 106.199219 146.460938 C 110.011719 150.839844 114.292969 154.699219 119.035156 158.050781 C 139.761719 172.785156 140.605469 177.691406 151.242188 189.964844 C 151.613281 190.386719 151.964844 190.789062 152.367188 191.195312 C 155.589844 194.808594 159.023438 198.207031 162.671875 201.390625 Z M 162.671875 201.390625 " fill-opacity="1" fill-rule="nonzero"/></g><g clip-path="url(#87e39d20a1)"><path fill="#da9762" d="M 146.945312 63.398438 C 146.691406 63.96875 146.417969 64.527344 146.128906 65.082031 C 145.835938 65.632812 145.53125 66.175781 145.207031 66.710938 C 144.886719 67.242188 144.546875 67.765625 144.191406 68.28125 C 143.839844 68.792969 143.46875 69.296875 143.085938 69.785156 C 142.699219 70.277344 142.300781 70.757812 141.886719 71.222656 C 141.472656 71.691406 141.046875 72.144531 140.605469 72.585938 C 140.164062 73.027344 139.707031 73.453125 139.242188 73.867188 C 138.773438 74.28125 138.296875 74.683594 137.804688 75.066406 C 137.3125 75.453125 136.808594 75.820312 136.296875 76.175781 C 135.78125 76.53125 135.257812 76.867188 134.726562 77.191406 C 134.191406 77.515625 133.648438 77.820312 133.09375 78.113281 C 132.542969 78.402344 131.980469 78.675781 131.410156 78.929688 C 130.84375 79.1875 130.265625 79.425781 129.683594 79.648438 C 129.097656 79.867188 128.507812 80.074219 127.914062 80.257812 C 127.316406 80.445312 126.714844 80.613281 126.109375 80.761719 C 125.503906 80.910156 124.894531 81.042969 124.277344 81.15625 C 123.664062 81.269531 123.046875 81.363281 122.429688 81.4375 C 121.808594 81.511719 121.1875 81.570312 120.5625 81.609375 C 119.941406 81.644531 119.316406 81.664062 118.691406 81.664062 C 118.066406 81.664062 117.445312 81.648438 116.820312 81.609375 C 116.195312 81.574219 115.574219 81.515625 114.957031 81.441406 C 114.335938 81.367188 113.71875 81.273438 113.105469 81.160156 C 112.488281 81.050781 111.878906 80.917969 111.273438 80.769531 C 110.667969 80.621094 110.066406 80.453125 109.46875 80.269531 C 108.875 80.082031 108.28125 79.878906 107.699219 79.660156 C 107.113281 79.4375 106.539062 79.199219 105.96875 78.945312 C 105.398438 78.6875 104.839844 78.417969 104.285156 78.128906 C 103.730469 77.835938 103.1875 77.53125 102.652344 77.210938 C 102.121094 76.886719 101.59375 76.550781 101.082031 76.195312 C 100.566406 75.839844 100.0625 75.472656 99.570312 75.085938 C 99.082031 74.703125 98.601562 74.304688 98.132812 73.890625 C 97.664062 73.476562 97.210938 73.050781 96.769531 72.609375 C 96.328125 72.167969 95.898438 71.714844 95.484375 71.25 C 95.070312 70.78125 94.671875 70.304688 94.285156 69.8125 C 93.902344 69.324219 93.53125 68.820312 93.175781 68.308594 C 92.820312 67.796875 92.480469 67.273438 92.160156 66.738281 C 91.835938 66.207031 91.527344 65.664062 91.238281 65.109375 C 90.949219 64.558594 90.675781 64 90.417969 63.429688 C 90.160156 62.863281 89.921875 62.285156 89.699219 61.703125 C 89.480469 61.121094 89.273438 60.53125 89.089844 59.9375 C 88.902344 59.339844 88.734375 58.742188 88.585938 58.136719 C 88.4375 57.53125 88.304688 56.921875 88.191406 56.308594 C 88.078125 55.695312 87.984375 55.078125 87.910156 54.457031 C 87.835938 53.839844 87.777344 53.21875 87.738281 52.597656 C 87.703125 51.972656 87.683594 51.351562 87.683594 50.726562 C 87.683594 50.105469 87.699219 49.480469 87.738281 48.859375 C 87.777344 48.238281 87.832031 47.617188 87.90625 46.996094 C 87.984375 46.378906 88.078125 45.761719 88.1875 45.148438 C 88.300781 44.535156 88.433594 43.925781 88.582031 43.320312 C 88.730469 42.714844 88.898438 42.113281 89.082031 41.519531 C 89.269531 40.925781 89.472656 40.335938 89.695312 39.753906 C 89.914062 39.167969 90.152344 38.59375 90.410156 38.023438 C 90.667969 37.457031 90.9375 36.894531 91.230469 36.34375 C 91.519531 35.792969 91.824219 35.25 92.148438 34.714844 C 92.472656 34.179688 92.808594 33.65625 93.164062 33.144531 C 93.519531 32.632812 93.890625 32.128906 94.273438 31.636719 C 94.660156 31.148438 95.058594 30.667969 95.472656 30.203125 C 95.886719 29.734375 96.316406 29.28125 96.757812 28.839844 C 97.199219 28.398438 97.652344 27.972656 98.121094 27.558594 C 98.585938 27.144531 99.066406 26.746094 99.558594 26.359375 C 100.046875 25.976562 100.550781 25.605469 101.066406 25.253906 C 101.578125 24.898438 102.101562 24.558594 102.636719 24.238281 C 103.171875 23.914062 103.714844 23.609375 104.269531 23.320312 C 104.820312 23.027344 105.382812 22.757812 105.953125 22.5 C 105.6875 23.085938 105.445312 23.679688 105.21875 24.28125 C 104.992188 24.882812 104.785156 25.492188 104.597656 26.105469 C 104.410156 26.71875 104.238281 27.339844 104.089844 27.964844 C 103.941406 28.589844 103.8125 29.21875 103.699219 29.851562 C 103.589844 30.484375 103.5 31.121094 103.429688 31.757812 C 103.359375 32.398438 103.308594 33.039062 103.277344 33.679688 C 103.246094 34.320312 103.234375 34.964844 103.246094 35.605469 C 103.253906 36.25 103.28125 36.890625 103.332031 37.53125 C 103.382812 38.171875 103.449219 38.808594 103.539062 39.445312 C 103.628906 40.082031 103.738281 40.714844 103.867188 41.34375 C 103.996094 41.976562 104.144531 42.601562 104.308594 43.21875 C 104.476562 43.839844 104.664062 44.453125 104.871094 45.0625 C 105.074219 45.671875 105.300781 46.273438 105.542969 46.867188 C 105.789062 47.464844 106.050781 48.050781 106.328125 48.628906 C 106.609375 49.207031 106.90625 49.777344 107.222656 50.335938 C 107.535156 50.898438 107.871094 51.445312 108.21875 51.984375 C 108.570312 52.527344 108.933594 53.054688 109.316406 53.570312 C 109.699219 54.085938 110.097656 54.589844 110.511719 55.082031 C 110.925781 55.574219 111.355469 56.054688 111.800781 56.519531 C 112.242188 56.984375 112.699219 57.433594 113.171875 57.871094 C 113.644531 58.308594 114.128906 58.730469 114.628906 59.136719 C 115.125 59.542969 115.636719 59.933594 116.160156 60.308594 C 116.683594 60.683594 117.214844 61.042969 117.761719 61.382812 C 118.304688 61.726562 118.859375 62.050781 119.425781 62.355469 C 119.992188 62.664062 120.566406 62.953125 121.148438 63.222656 C 121.730469 63.496094 122.324219 63.75 122.921875 63.984375 C 123.519531 64.21875 124.125 64.433594 124.738281 64.632812 C 125.351562 64.828125 125.96875 65.007812 126.59375 65.164062 C 127.214844 65.324219 127.84375 65.460938 128.476562 65.582031 C 129.109375 65.703125 129.742188 65.800781 130.382812 65.882812 C 131.019531 65.960938 131.660156 66.023438 132.304688 66.0625 C 132.945312 66.101562 133.589844 66.125 134.230469 66.125 C 138.667969 66.132812 142.90625 65.222656 146.945312 63.398438 Z M 146.945312 63.398438 " fill-opacity="1" fill-rule="nonzero"/></g></svg>