<svg xmlns="http://www.w3.org/2000/svg" xmlns:xlink="http://www.w3.org/1999/xlink" width="500" zoomAndPan="magnify" viewBox="0 0 375 374.999991" height="500" preserveAspectRatio="xMidYMid meet" version="1.0"><defs><clipPath id="0db1ad36b5"><path d="M 40 178 L 292 178 L 292 312.871094 L 40 312.871094 Z M 40 178 " clip-rule="nonzero"/></clipPath><clipPath id="9c2b62f601"><path d="M 38 157 L 217 157 L 217 312.871094 L 38 312.871094 Z M 38 157 " clip-rule="nonzero"/></clipPath><clipPath id="4905710139"><path d="M 112 62.371094 L 195 62.371094 L 195 145 L 112 145 Z M 112 62.371094 " clip-rule="nonzero"/></clipPath></defs><path fill="#cea472" d="M 336.460938 221.429688 C 333.898438 227.046875 331.011719 232.496094 327.800781 237.773438 C 324.59375 243.054688 321.085938 248.125 317.28125 252.992188 C 313.476562 257.855469 309.398438 262.480469 305.046875 266.863281 C 300.695312 271.246094 296.101562 275.359375 291.265625 279.203125 L 288.820312 281.011719 C 256.265625 281.378906 229.707031 281.257812 223.859375 280.253906 C 206.421875 277.195312 158.117188 252.1875 194.511719 233.957031 C 194.511719 233.957031 200.941406 232.832031 210.847656 231.3125 L 215.496094 230.605469 C 235.894531 227.617188 266.855469 223.753906 288.402344 224.167969 C 314.546875 224.683594 324.96875 220.667969 336.460938 221.429688 Z M 336.460938 221.429688 " fill-opacity="1" fill-rule="nonzero"/><path fill="#c18156" d="M 322.375 245.898438 C 313.621094 258.507812 303.226562 269.578125 291.191406 279.105469 L 288.746094 280.914062 C 276.871094 290.007812 263.949219 297.21875 249.980469 302.546875 C 235.304688 301.027344 218.675781 299.167969 201.871094 297.039062 C 157.261719 291.582031 112.039062 284.4375 105.484375 278.34375 C 97.804688 271.003906 119.523438 250.277344 137.917969 234.886719 C 142.808594 230.875 147.234375 227.226562 151 224.289062 C 151.882812 223.605469 178.34375 226.273438 207.570312 229.648438 L 215.519531 230.578125 C 243.964844 233.957031 273.019531 237.75 282.363281 239.632812 C 299.164062 243.011719 303.421875 243.304688 322.375 245.898438 Z M 322.375 245.898438 " fill-opacity="1" fill-rule="nonzero"/><g clip-path="url(#0db1ad36b5)"><path fill="#93603e" d="M 291.265625 279.203125 L 288.820312 281.011719 C 276.945312 290.105469 264.023438 297.316406 250.054688 302.644531 C 239.125 306.820312 227.867188 309.714844 216.277344 311.332031 C 209.035156 312.367188 201.753906 312.878906 194.4375 312.871094 C 192.117188 312.871094 189.796875 312.816406 187.480469 312.710938 C 185.160156 312.609375 182.84375 312.449219 180.535156 312.242188 C 178.222656 312.035156 175.917969 311.773438 173.617188 311.460938 C 171.316406 311.152344 169.027344 310.789062 166.742188 310.375 C 164.457031 309.960938 162.183594 309.496094 159.921875 308.980469 C 157.660156 308.464844 155.410156 307.898438 153.171875 307.28125 C 150.933594 306.667969 148.710938 306 146.503906 305.285156 C 144.296875 304.570312 142.105469 303.804688 139.929688 302.992188 C 137.757812 302.179688 135.601562 301.316406 133.46875 300.40625 C 131.332031 299.5 129.21875 298.542969 127.125 297.539062 C 125.03125 296.53125 122.964844 295.484375 120.917969 294.386719 C 118.871094 293.289062 116.851562 292.148438 114.859375 290.960938 C 112.863281 289.773438 110.894531 288.542969 108.957031 287.269531 C 107.015625 285.992188 105.105469 284.675781 103.226562 283.316406 C 101.34375 281.957031 99.492188 280.554688 97.675781 279.113281 C 95.855469 277.667969 94.070312 276.1875 92.320312 274.664062 C 90.566406 273.140625 88.851562 271.578125 87.167969 269.980469 C 85.484375 268.382812 83.839844 266.746094 82.230469 265.070312 C 80.621094 263.398438 79.050781 261.691406 77.515625 259.949219 C 75.984375 258.203125 74.488281 256.429688 73.035156 254.617188 C 71.582031 252.808594 70.167969 250.96875 68.796875 249.09375 C 67.425781 247.222656 66.097656 245.316406 64.808594 243.386719 C 63.523438 241.453125 62.28125 239.492188 61.082031 237.503906 C 59.882812 235.515625 58.726562 233.503906 57.617188 231.464844 C 56.507812 229.425781 55.445312 227.359375 54.429688 225.273438 C 53.410156 223.1875 52.441406 221.078125 51.519531 218.949219 C 50.59375 216.816406 49.71875 214.667969 48.894531 212.496094 C 48.066406 210.328125 47.289062 208.140625 46.558594 205.9375 C 45.828125 203.734375 45.148438 201.511719 44.519531 199.277344 C 43.890625 197.042969 43.308594 194.796875 42.777344 192.535156 C 42.25 190.273438 41.769531 188.003906 41.339844 185.722656 C 40.914062 183.4375 40.535156 181.148438 40.207031 178.851562 C 50.652344 179.386719 89.34375 193.726562 89.34375 193.726562 C 89.34375 193.726562 98.636719 195.316406 111.039062 197.960938 C 126.886719 201.335938 147.871094 206.402344 160.636719 211.957031 C 181.035156 220.816406 192.285156 222.308594 207.570312 229.648438 C 208.648438 230.140625 209.699219 230.703125 210.847656 231.289062 C 211.535156 231.632812 212.21875 232.023438 212.925781 232.414062 C 231.125 242.203125 221.242188 227.347656 250.078125 247.707031 C 275.515625 265.695312 279.722656 271.347656 291.265625 279.203125 Z M 291.265625 279.203125 " fill-opacity="1" fill-rule="nonzero"/></g><g clip-path="url(#9c2b62f601)"><path fill="#3f3a36" d="M 216.375 311.332031 C 209.132812 312.367188 201.851562 312.878906 194.535156 312.871094 C 192.214844 312.871094 189.894531 312.820312 187.574219 312.71875 C 185.253906 312.613281 182.9375 312.457031 180.625 312.25 C 178.3125 312.042969 176.007812 311.785156 173.703125 311.472656 C 171.402344 311.164062 169.109375 310.800781 166.828125 310.390625 C 164.542969 309.976562 162.265625 309.511719 160.003906 309 C 157.738281 308.484375 155.488281 307.917969 153.25 307.304688 C 151.007812 306.6875 148.785156 306.023438 146.574219 305.308594 C 144.367188 304.59375 142.175781 303.832031 140 303.019531 C 137.824219 302.207031 135.667969 301.34375 133.53125 300.433594 C 131.394531 299.527344 129.28125 298.570312 127.1875 297.566406 C 125.09375 296.5625 123.023438 295.511719 120.976562 294.417969 C 118.925781 293.320312 116.90625 292.179688 114.910156 290.992188 C 112.914062 289.804688 110.945312 288.574219 109.003906 287.300781 C 107.0625 286.027344 105.152344 284.707031 103.269531 283.347656 C 101.386719 281.988281 99.535156 280.585938 97.714844 279.144531 C 95.898438 277.699219 94.109375 276.21875 92.355469 274.695312 C 90.601562 273.171875 88.886719 271.613281 87.199219 270.011719 C 85.515625 268.414062 83.871094 266.777344 82.257812 265.101562 C 80.648438 263.429688 79.078125 261.722656 77.542969 259.976562 C 76.007812 258.234375 74.511719 256.457031 73.058594 254.648438 C 71.605469 252.835938 70.191406 250.996094 68.816406 249.121094 C 67.445312 247.246094 66.113281 245.34375 64.828125 243.410156 C 63.539062 241.476562 62.296875 239.515625 61.09375 237.527344 C 59.894531 235.539062 58.738281 233.527344 57.628906 231.484375 C 56.519531 229.445312 55.457031 227.382812 54.4375 225.292969 C 53.421875 223.207031 52.449219 221.097656 51.527344 218.964844 C 50.601562 216.832031 49.726562 214.683594 48.898438 212.511719 C 48.070312 210.339844 47.292969 208.152344 46.5625 205.949219 C 45.832031 203.742188 45.152344 201.523438 44.523438 199.289062 C 43.890625 197.050781 43.308594 194.804688 42.78125 192.542969 C 42.25 190.28125 41.769531 188.007812 41.339844 185.722656 C 40.914062 183.441406 40.535156 181.148438 40.207031 178.851562 C 39.199219 171.773438 38.683594 164.660156 38.667969 157.511719 C 53.34375 159.394531 77.996094 165 95.972656 181.589844 C 101.441406 186.636719 106.464844 192.089844 111.039062 197.960938 C 121.136719 210.808594 127.742188 223.238281 137.941406 234.886719 C 143.238281 240.976562 149.179688 246.351562 155.769531 251.011719 C 184.558594 271.519531 185.730469 278.34375 200.503906 295.425781 C 201.015625 296.011719 201.503906 296.574219 202.066406 297.136719 C 206.539062 302.167969 211.308594 306.898438 216.375 311.332031 Z M 216.375 311.332031 " fill-opacity="1" fill-rule="nonzero"/></g><g clip-path="url(#4905710139)"><path fill="#da9762" d="M 194.535156 119.289062 C 194.179688 120.082031 193.800781 120.863281 193.398438 121.628906 C 192.996094 122.398438 192.570312 123.15625 192.121094 123.898438 C 191.675781 124.640625 191.203125 125.367188 190.710938 126.082031 C 190.21875 126.796875 189.707031 127.496094 189.171875 128.179688 C 188.636719 128.863281 188.082031 129.53125 187.507812 130.179688 C 186.933594 130.828125 186.339844 131.460938 185.726562 132.074219 C 185.113281 132.691406 184.484375 133.285156 183.835938 133.859375 C 183.1875 134.4375 182.519531 134.992188 181.839844 135.527344 C 181.15625 136.0625 180.457031 136.578125 179.746094 137.070312 C 179.03125 137.5625 178.304688 138.035156 177.5625 138.484375 C 176.820312 138.933594 176.066406 139.359375 175.296875 139.765625 C 174.53125 140.167969 173.75 140.546875 172.960938 140.90625 C 172.167969 141.261719 171.367188 141.59375 170.558594 141.902344 C 169.746094 142.210938 168.929688 142.496094 168.101562 142.753906 C 167.273438 143.011719 166.4375 143.246094 165.59375 143.453125 C 164.753906 143.660156 163.90625 143.84375 163.054688 144 C 162.199219 144.15625 161.34375 144.289062 160.484375 144.394531 C 159.621094 144.5 158.757812 144.578125 157.894531 144.628906 C 157.027344 144.683594 156.160156 144.710938 155.292969 144.710938 C 154.425781 144.710938 153.558594 144.683594 152.695312 144.632812 C 151.828125 144.582031 150.964844 144.503906 150.105469 144.398438 C 149.242188 144.296875 148.386719 144.164062 147.53125 144.007812 C 146.679688 143.851562 145.832031 143.671875 144.988281 143.464844 C 144.148438 143.257812 143.3125 143.023438 142.484375 142.765625 C 141.65625 142.507812 140.835938 142.226562 140.027344 141.917969 C 139.214844 141.613281 138.414062 141.28125 137.621094 140.925781 C 136.832031 140.570312 136.050781 140.191406 135.285156 139.785156 C 134.515625 139.382812 133.761719 138.957031 133.019531 138.511719 C 132.277344 138.0625 131.546875 137.589844 130.832031 137.097656 C 130.121094 136.605469 129.421875 136.09375 128.738281 135.558594 C 128.054688 135.023438 127.390625 134.46875 126.738281 133.890625 C 126.089844 133.316406 125.457031 132.722656 124.84375 132.109375 C 124.230469 131.496094 123.636719 130.863281 123.0625 130.214844 C 122.484375 129.566406 121.929688 128.902344 121.394531 128.21875 C 120.859375 127.535156 120.347656 126.835938 119.855469 126.121094 C 119.359375 125.410156 118.890625 124.679688 118.441406 123.9375 C 117.992188 123.195312 117.566406 122.441406 117.164062 121.671875 C 116.757812 120.902344 116.378906 120.125 116.023438 119.332031 C 115.667969 118.542969 115.335938 117.742188 115.027344 116.929688 C 114.71875 116.117188 114.4375 115.296875 114.179688 114.46875 C 113.917969 113.640625 113.6875 112.808594 113.480469 111.964844 C 113.269531 111.121094 113.089844 110.273438 112.933594 109.421875 C 112.773438 108.566406 112.644531 107.710938 112.539062 106.847656 C 112.433594 105.988281 112.355469 105.125 112.304688 104.257812 C 112.25 103.390625 112.222656 102.523438 112.222656 101.65625 C 112.222656 100.789062 112.25 99.921875 112.300781 99.054688 C 112.355469 98.191406 112.433594 97.324219 112.535156 96.464844 C 112.640625 95.601562 112.769531 94.746094 112.925781 93.890625 C 113.082031 93.039062 113.265625 92.191406 113.472656 91.347656 C 113.679688 90.503906 113.914062 89.667969 114.171875 88.839844 C 114.429688 88.011719 114.710938 87.191406 115.019531 86.382812 C 115.324219 85.570312 115.65625 84.769531 116.011719 83.976562 C 116.367188 83.1875 116.746094 82.40625 117.148438 81.636719 C 117.554688 80.871094 117.980469 80.113281 118.425781 79.371094 C 118.875 78.628906 119.347656 77.898438 119.839844 77.1875 C 120.332031 76.472656 120.84375 75.773438 121.378906 75.089844 C 121.914062 74.40625 122.46875 73.738281 123.042969 73.089844 C 123.621094 72.441406 124.214844 71.808594 124.828125 71.195312 C 125.441406 70.582031 126.070312 69.988281 126.71875 69.410156 C 127.367188 68.835938 128.035156 68.28125 128.71875 67.746094 C 129.398438 67.210938 130.097656 66.695312 130.8125 66.203125 C 131.523438 65.710938 132.253906 65.238281 132.996094 64.789062 C 133.738281 64.339844 134.492188 63.914062 135.261719 63.511719 C 136.027344 63.109375 136.808594 62.730469 137.597656 62.371094 C 137.234375 63.1875 136.894531 64.015625 136.578125 64.851562 C 136.265625 65.6875 135.976562 66.535156 135.714844 67.390625 C 135.453125 68.246094 135.21875 69.109375 135.011719 69.976562 C 134.804688 70.847656 134.625 71.722656 134.472656 72.605469 C 134.316406 73.484375 134.191406 74.371094 134.09375 75.257812 C 133.996094 76.148438 133.925781 77.039062 133.882812 77.929688 C 133.839844 78.824219 133.824219 79.71875 133.839844 80.613281 C 133.851562 81.507812 133.890625 82.398438 133.960938 83.289062 C 134.027344 84.183594 134.125 85.070312 134.25 85.957031 C 134.371094 86.839844 134.523438 87.722656 134.703125 88.597656 C 134.878906 89.476562 135.085938 90.34375 135.320312 91.207031 C 135.550781 92.070312 135.808594 92.925781 136.097656 93.773438 C 136.382812 94.621094 136.695312 95.457031 137.03125 96.285156 C 137.371094 97.113281 137.734375 97.929688 138.121094 98.734375 C 138.511719 99.539062 138.925781 100.332031 139.363281 101.113281 C 139.800781 101.890625 140.261719 102.65625 140.746094 103.40625 C 141.234375 104.15625 141.742188 104.890625 142.273438 105.613281 C 142.804688 106.332031 143.359375 107.03125 143.933594 107.714844 C 144.507812 108.402344 145.105469 109.066406 145.71875 109.714844 C 146.335938 110.363281 146.972656 110.988281 147.628906 111.597656 C 148.285156 112.207031 148.957031 112.792969 149.648438 113.359375 C 150.339844 113.921875 151.050781 114.46875 151.777344 114.988281 C 152.503906 115.511719 153.242188 116.007812 154 116.484375 C 154.757812 116.960938 155.527344 117.410156 156.3125 117.839844 C 157.097656 118.265625 157.894531 118.667969 158.707031 119.046875 C 159.515625 119.425781 160.335938 119.777344 161.167969 120.105469 C 162 120.429688 162.839844 120.730469 163.691406 121.003906 C 164.542969 121.28125 165.402344 121.527344 166.265625 121.746094 C 167.132812 121.96875 168.003906 122.164062 168.882812 122.328125 C 169.761719 122.496094 170.644531 122.632812 171.53125 122.746094 C 172.417969 122.859375 173.304688 122.941406 174.199219 122.996094 C 175.089844 123.054688 175.984375 123.082031 176.878906 123.082031 C 183.035156 123.09375 188.921875 121.828125 194.535156 119.289062 Z M 194.535156 119.289062 " fill-opacity="1" fill-rule="nonzero"/></g></svg>