<svg version="1.2" xmlns="http://www.w3.org/2000/svg" viewBox="0 0 1500 1000" width="1500" height="1000">
	<title>2848831-ai</title>
	<defs>
		<linearGradient id="g1" x2="1" gradientUnits="userSpaceOnUse" gradientTransform="matrix(475.9,-165.442,219.221,630.599,977.186,218.172)">
			<stop offset="0" stop-color="#442225"/>
			<stop offset="1" stop-color="#603032"/>
		</linearGradient>
		<linearGradient id="g2" x2="1" gradientUnits="userSpaceOnUse" gradientTransform="matrix(523.633,-205.856,169.951,432.301,514.341,500.114)">
			<stop offset="0" stop-color="#442225"/>
			<stop offset="1" stop-color="#603032"/>
		</linearGradient>
	</defs>
	<style>
		.s0 { fill: #efad7d } 
		.s1 { fill: #4b2a31 } 
		.s2 { opacity: .1;mix-blend-mode: multiply;fill: url(#g1) } 
		.s3 { fill: #51292c } 
		.s4 { fill: #603032 } 
		.s5 { opacity: .5;fill: url(#g2) } 
		.s6 { fill: #b45340 } 
		.s7 { fill: #a84639 } 
		.s8 { fill: #d27d56 } 
		.s9 { fill: #bf6a49 } 
		.s10 { fill: #ea914e } 
		.s11 { fill: #d88145 } 
	</style>
	<g id="OBJECTS">
		<g id="&lt;Group&gt;">
			<g id="&lt;Group&gt;">
				<g id="&lt;Group&gt;" style="opacity: .8">
					<path id="&lt;Path&gt;" class="s0" d="m315.7 90.8c-5.7-5.7-11.9-10.8-18.4-15.2 33 48.7 27.9 115.4-15.2 158.5-43.2 43.2-109.9 48.2-158.6 15.3 4.4 6.5 9.5 12.7 15.2 18.4 48.9 48.9 128.2 48.9 177 0 48.9-48.9 48.9-128.1 0-177z"/>
				</g>
			</g>
			<g id="&lt;Group&gt;">
				<g id="&lt;Group&gt;">
					<g id="&lt;Group&gt;">
						<path id="&lt;Path&gt;" class="s1" d="m1351 221.7c-15.1-6.3-32.2-5.5-46.7 2.1-22.3 11.7-59.2 30.9-102.8 52.6 1.2 37.3 38.5 62.9 72.3 69.8 5.5 1.1 11.5 0.4 17.1 0.2 7.7-0.2 15.4-0.5 23.1-0.5 9.1 0 24.6-1.6 30.3 7.3 14 21.9-28.6 38.7-42.3 44.8-29.6 12.9-58.6 29.2-82.3 51.3-14.4 13.3-26.5 29.3-32.8 48-6 17.6-6.8 37.7-2.2 55.7q0.4 1.4 0.8 2.7l97.6 44c3.5-1 7-2 10.5-2.9 14.3-4.1 28.6-8.1 43.1-11.3 14.1-3.3 28.6-6.1 43.1-6.5 9.7-0.3 21.8 0 29.5 6.8 18.6 16.5-9.3 36.5-22.2 44.2-5.5 3.2-11.1 6.2-16.8 8.9l129.7 58.5v-414z"/>
					</g>
					<path id="&lt;Path&gt;" class="s2" d="m1351 221.7c-15.1-6.3-32.2-5.5-46.7 2.1-22.3 11.7-59.2 30.9-102.8 52.6 1.2 37.3 38.5 62.9 72.3 69.8 5.5 1.1 11.5 0.4 17.1 0.2 7.7-0.2 15.4-0.5 23.1-0.5 9.1 0 24.6-1.6 30.3 7.3 14 21.9-28.6 38.7-42.3 44.8-29.6 12.9-58.6 29.2-82.3 51.3-14.4 13.3-26.5 29.3-32.8 48-6 17.6-6.8 37.7-2.2 55.7q0.4 1.4 0.8 2.7l97.6 44c3.5-1 7-2 10.5-2.9 14.3-4.1 28.6-8.1 43.1-11.3 14.1-3.3 28.6-6.1 43.1-6.5 9.7-0.3 21.8 0 29.5 6.8 18.6 16.5-9.3 36.5-22.2 44.2-5.5 3.2-11.1 6.2-16.8 8.9l129.7 58.5v-414z"/>
					<g id="&lt;Group&gt;">
						<path id="&lt;Path&gt;" class="s3" d="m1422 633.9c9.4-7 20.6-15.6 24.1-27.4 3.9-13.2-5.8-25.7-16.7-32-10.5-6.1-22.9-8.3-34.8-9.4-18.2-1.7-37.1-2.2-55.3-0.6-17.4 1.5-34.7 3.7-52.1 4.4-24.3 0.9-69.3 1.2-71.3-32.3-1.3-19.6 9.2-40.2 20.8-55.3 13.7-17.9 31.7-32.2 49.9-45.3 18.7-13.5 38.3-25.8 56.2-40.5 12-9.9 26.3-22.4 31.7-37.7 8.2-23.2-24.2-29.7-40.2-32.7-27.3-5.2-55.5-5.9-82.3-13.3-8.7-2.4-18.9-5.7-24.6-13.2-8.1-10.5-3.4-25.4 2.6-36.5-48.6 24.6-109.7 54.7-169.5 81.6-129.9 58.4-210.9 31.7-210.9 31.7l-14.7 22.4 562.6 253.4c8.4-5.5 16.5-11.3 24.5-17.3z"/>
					</g>
				</g>
				<g id="&lt;Group&gt;">
					<g id="&lt;Group&gt;">
						<g id="&lt;Group&gt;">
							<path id="&lt;Path&gt;" class="s4" d="m0 624l686.3-289c25.2-10.6 53.6-10.2 78.4 1.3l735.3 339v65.1h-1500z"/>
						</g>
						<path id="&lt;Path&gt;" class="s5" d="m764.7 336.3c-24.8-11.5-53.2-11.9-78.4-1.3l-32.3 13.6c-4.7 5.7-9 11.6-12.7 18-7.4 12.5-12.3 31.5 4.7 38.7 6.9 2.9 14.8 3 22.2 2.8 9.2-0.2 18.3-1.3 27.4-2.4 17.5-2.1 35.7-5.6 53.3-3.6 7.2 0.9 24.4 5.5 21.6 16.2-1.2 4.6-5.6 8.3-9 11.2-5.9 5-12.4 9.3-18.9 13.4-15 9.4-30.7 17.6-46.3 25.9-14.8 7.9-27.9 16.9-40.8 27.8-19.9 16.9-38.2 36.9-49.3 60.8-5.7 12.3-9.2 25.6-9.6 39.2-0.3 9.5 0.2 20.2 5.7 28.3 9.5 13.8 29.1 14 44 12.6 18.1-1.7 35.7-6.6 53.1-11.4 23.9-6.5 48.1-11.9 72.2-17.6 32.8-7.8 65.8-15.2 99.1-20.6 13.9-2.3 27.9-3.7 41.8-5.7 10.5-1.5 21.2-3.5 31.9-3.1 8.5 0.4 17.8 3.2 21.3 12 3.6 9.2-4.5 17.9-11 23.4-10.2 8.6-22.3 15.2-34 21.4-13.2 7-26.9 13.3-40.6 19.3-27.3 11.9-55.3 22.8-81.3 37.3-27.1 15.1-53.4 31.6-79.7 47.9h780.9v-65.1z"/>
						<g id="&lt;Group&gt;">
							<path id="&lt;Path&gt;" class="s4" d="m772.4 729.9c35-18.1 71.1-33.9 106.8-50.8 22.7-10.7 45.7-21.5 67.5-33.9 10.6-6.1 21.2-12.7 30.3-21.1 7.1-6.6 14.3-15.2 13.9-25.5-0.7-13.6-10.8-22.2-23-26.5-16-5.6-33.9-5.9-50.7-5.2-21.2 0.8-42.3 3.6-63.2 7.3-35 6.1-69.4 14.5-103.6 23.8-19.1 5.2-37.6 12.4-56.7 17.7-23.7 6.6-58.1 14.5-78.9-3.5-22.4-19.4-0.8-46.1 14-62.2 24-26 53-46.9 83-65.5 13.4-8.3 27.2-16.1 40.8-24.1 10.7-6.2 21.7-11.9 31.9-18.9 9.1-6.3 21.9-15.4 22.5-27.6 0.4-9.1-5.1-15.6-13-19.3-17.7-8.2-40.3-6.2-59.1-4.4-18.2 1.7-36.2 6.3-54.4 7-6.5 0.3-15.3 0.4-20.4-4.5-5.3-5.1-3-13.3-0.5-19.2 6.9-16.4 18.1-29.9 31.8-40.5q-2.6 0.9-5.1 2l-686.3 289v116.4h751.7c6.9-3.5 13.8-7 20.7-10.5z"/>
						</g>
					</g>
				</g>
			</g>
			<g id="&lt;Group&gt;">
				<g id="&lt;Group&gt;">
					<g id="&lt;Group&gt;">
						<path id="&lt;Path&gt;" class="s6" d="m1007.6 368l-4.1 335.6h12.6l-7.2-335.6z"/>
						<path id="&lt;Path&gt;" class="s6" d="m1005.2 607.8l-37.9-55.2 7.2-164.9-16.4 166.9 46.6 71.3z"/>
						<path id="&lt;Path&gt;" class="s6" d="m1012.7 588.5l29-26.9 21-99.6-13.4 105.3-36.6 32.7z"/>
						<path id="&lt;Path&gt;" class="s6" d="m965.2 505.8l-13.5-28.2v-61.1l-4.8 65.9 17.5 34.2z"/>
						<path id="&lt;Path&gt;" class="s6" d="m1012 551.6l10.9-10.5 11-157-4.8 164.3-17.1 16.4z"/>
						<path id="&lt;Path&gt;" class="s6" d="m1006.4 504.1l-18.1-9.7v-126.4l-5.9 132.4 23.6 16.9z"/>
						<path id="&lt;Path&gt;" class="s6" d="m1046.1 540.3l-5.6-4.5 1.7-143.3-8.3 147.8 9.9 11.3z"/>
						<path id="&lt;Path&gt;" class="s6" d="m1040.5 456l15.3-8 12.6-58.6-9 65-18.9 7.6z"/>
						<path id="&lt;Path&gt;" class="s6" d="m1053.1 521.9l9.6-7.6 14.5-60.1-8.8 65.4-16.9 12.2z"/>
						<path id="&lt;Path&gt;" class="s6" d="m948.1 466.5l-17.8-43.9 16.9 55.2z"/>
						<path id="&lt;Path&gt;" class="s6" d="m973.1 561.1l10.2-44.5-3.7 53.9z"/>
						<path id="&lt;Path&gt;" class="s6" d="m1032 422.6l-12.1-10.9 1-41.3-4.8 43.4 15.9 14.5z"/>
						<path id="&lt;Path&gt;" class="s6" d="m971.8 422.6l-10.5-16.5-1.6-42.3-3.5 46.2 14.7 23.6z"/>
						<path id="&lt;Path&gt;" class="s6" d="m1078.4 450.7c0 0 1-8.5 8.5-8.4 0 0-1.6 6.5-8.5 8.4z"/>
						<path id="&lt;Path&gt;" class="s6" d="m937.5 431.3c0 0-2-7.8 4.8-10.9 0 0 2.6 7.6-4.8 10.9z"/>
						<path id="&lt;Path&gt;" class="s6" d="m937.2 458.3c0 0-5-7.7-12.5-4.1 0 0 2.8 6.7 12.5 4.1z"/>
						<path id="&lt;Path&gt;" class="s6" d="m1044.6 405.2c0 0 0.6-9.9 6.9-10.6 0 0 0.8 9.4-6.9 10.6z"/>
						<path id="&lt;Path&gt;" class="s6" d="m984.6 530c0 0-1.4-5.2 7.5-7.4 0 0-0.7 5.8-7.5 7.4z"/>
						<path id="&lt;Path&gt;" class="s6" d="m991.1 389.4c0 0-1.2-9.2 6.5-9.2 0 0 1.8 8-6.5 9.2z"/>
						<path id="&lt;Path&gt;" class="s6" d="m1054.5 485.5c0 0 3.2-12-4.4-13.5 0 0-3.6 8.4 4.4 13.5z"/>
						<path id="&lt;Path&gt;" class="s6" d="m1068.4 386.4c0 0 2.1-9 12.8-7.2 0 0-4 8.5-12.8 7.2z"/>
					</g>
				</g>
				<g id="&lt;Group&gt;">
					<path id="&lt;Path&gt;" class="s6" d="m0 653.7l1443 70-1443 198.9z"/>
				</g>
				<g id="&lt;Group&gt;">
					<g id="&lt;Group&gt;">
						<path id="&lt;Path&gt;" class="s6" d="m401.1 676.9c0 0-18.7-250.5 6.5-250.5 25.2 0 11.5 250.5 11.5 250.5z"/>
						<path id="&lt;Path&gt;" class="s6" d="m413.1 623.6c0 0 18.9-6.7 28.5-38.9 3.6-12 4.6-25.1 3.9-38.1-0.4-7.6 0.4-17.6 7.1-18.5 10.9-1.5 17.5 85.8-39.5 105.1z"/>
						<path id="&lt;Path&gt;" class="s6" d="m407.3 568.8c0 0-18.9-6.6-28.4-38.9-3.6-12-4.7-25.1-4-38 0.5-7.7-0.3-17.7-7-18.6-11-1.5-17.5 85.9 39.4 105.1z"/>
					</g>
				</g>
				<path id="&lt;Path&gt;" class="s7" d="m419.2 674l289.1 136.9-71.6 8.4-235.8-146.2z"/>
				<path id="&lt;Path&gt;" class="s7" d="m1016.1 703l296.6 137.4-71.5 8.4-237.7-146.4z"/>
				<g id="&lt;Group&gt;">
					<g id="&lt;Group&gt;">
						<g id="&lt;Group&gt;">
							<path id="&lt;Path&gt;" class="s6" d="m633.4 637.7q-0.1-0.5-0.2-0.9l-35.4 40.7 33.1-49.6q-0.1-0.3-0.2-0.7l-36.2 50.3 34.2-55.7c-1-2.5-2.2-5.1-3.6-7.7l-34.3 63.4 29.1-71.3q-0.1-0.1-0.2-0.2l-31.9 71.5 28-76q-0.1-0.1-0.2-0.2l-30.3 76.2 25.6-80.5q-0.1-0.1-0.3-0.2l-27.8 80.7 21.7-84.9q-3.7-2.1-8-3.7l-16.7 88.6 10.3-90.5q-0.1-0.1-0.2-0.1l-12.6 90.6 8-91.5q-4.3-0.7-9.1-0.8l-2 92.3-6.3-92q-0.1 0-0.2 0l3.7 92-9.7-91.2q-4.1 0.7-7.7 2l14.4 89.2-19.8-87.1q-0.2 0.1-0.4 0.2l17.1 86.9-21.8-84.4q-0.2 0.1-0.3 0.2l19.9 84.2-23.9-81.5q-0.1 0.1-0.3 0.2l22 81.3-28.4-75.5q-2.4 2.6-4.5 5.5l30.4 70-36.3-60.1q-1.6 3.3-2.8 6.5l35.8 53.6-39.1-43q-0.1 0.6-0.2 1.2l35.7 41.8-37.5-31.1c-0.1 0.8-0.1 1.4-0.1 1.6l33 29.5 5.8 5.2h42.6l5.6-5.2z"/>
						</g>
						<g id="&lt;Group&gt;">
							<path id="&lt;Path&gt;" class="s6" d="m634.6 646.3c0 0-0.1-0.5-0.2-1.5l-33.5 32.7z"/>
						</g>
					</g>
				</g>
				<path id="&lt;Path&gt;" class="s7" d="m595.3 682.7l329.3 125.7-111.4 10.9-263.1-138.9z"/>
			</g>
			<g id="&lt;Group&gt;">
				<path id="&lt;Path&gt;" class="s8" d="m1178 759.8c0 0-70.3-69-36.4-125.4 33.9-56.3 112.1-69.9 68.7 120.4z"/>
				<g id="&lt;Group&gt;">
					<path id="&lt;Path&gt;" class="s8" d="m0 894l1500-176v282h-1500z"/>
				</g>
				<g id="&lt;Group&gt;">
					<g id="&lt;Group&gt;">
						<path id="&lt;Path&gt;" class="s8" d="m537.1 353.7l-6.2 509.5h19.1l-11-509.5z"/>
						<path id="&lt;Path&gt;" class="s8" d="m533.4 717.8l-57.5-83.8 10.9-250.4-24.9 253.4 70.8 108.3z"/>
						<path id="&lt;Path&gt;" class="s8" d="m544.9 688.5l43.9-40.9 31.9-151.1-20.3 159.8-55.5 49.6z"/>
						<path id="&lt;Path&gt;" class="s8" d="m472.7 563l-20.5-42.8v-92.9l-7.3 100.1 26.5 52z"/>
						<path id="&lt;Path&gt;" class="s8" d="m543.7 632.5l16.7-15.9 16.6-238.5-7.3 249.5-26 25z"/>
						<path id="&lt;Path&gt;" class="s8" d="m535.2 560.3l-27.4-14.6v-192l-9 201.1 35.8 25.5z"/>
						<path id="&lt;Path&gt;" class="s8" d="m595.6 615.4l-8.6-7 2.7-217.5-12.7 224.5 15 17.1z"/>
						<path id="&lt;Path&gt;" class="s8" d="m587 487.3l23.3-12.1 19.2-89-13.8 98.7-28.7 11.6z"/>
						<path id="&lt;Path&gt;" class="s8" d="m606.2 587.3l14.5-11.5 22.1-91.3-13.3 99.3-25.7 18.6z"/>
						<path id="&lt;Path&gt;" class="s8" d="m446.7 503.3l-27-66.7 25.7 83.8z"/>
						<path id="&lt;Path&gt;" class="s8" d="m484.7 646.9l15.4-67.5-5.5 81.8z"/>
						<path id="&lt;Path&gt;" class="s8" d="m574.1 436.6l-18.3-16.6 1.4-62.6-7.2 65.9 24.1 21.9z"/>
						<path id="&lt;Path&gt;" class="s8" d="m482.7 436.6l-15.9-25-2.4-64.3-5.4 70.2 22.3 35.7z"/>
						<path id="&lt;Path&gt;" class="s8" d="m644.6 479.2c0 0 1.4-12.9 12.9-12.7 0 0-2.4 9.9-12.9 12.7z"/>
						<path id="&lt;Path&gt;" class="s8" d="m430.6 449.9c0 0-2.9-11.9 7.3-16.6 0 0 4.1 11.5-7.3 16.6z"/>
						<path id="&lt;Path&gt;" class="s8" d="m430.2 490.8c0 0-7.6-11.6-19-6.3 0 0 4.3 10.3 19 6.3z"/>
						<path id="&lt;Path&gt;" class="s8" d="m593.3 410.2c0 0 0.8-15 10.5-16.2 0 0 1.2 14.3-10.5 16.2z"/>
						<path id="&lt;Path&gt;" class="s8" d="m502.2 599.7c0 0-2.1-7.9 11.4-11.3 0 0-1.1 8.8-11.4 11.3z"/>
						<path id="&lt;Path&gt;" class="s8" d="m512.1 386.2c0 0-1.9-13.9 9.8-13.9 0 0 2.7 12-9.8 13.9z"/>
						<path id="&lt;Path&gt;" class="s8" d="m608.2 532.1c0 0 4.9-18.2-6.5-20.4 0 0-5.5 12.6 6.5 20.4z"/>
						<path id="&lt;Path&gt;" class="s8" d="m629.5 381.6c0 0 3.1-13.6 19.3-10.9 0 0-6 12.9-19.3 10.9z"/>
					</g>
				</g>
				<path id="&lt;Path&gt;" class="s9" d="m549.3 830.1l320.6 169.9h-112.3l-226.4-167.8z"/>
				<path id="&lt;Path&gt;" class="s9" d="m1211.5 751.9l288.5 128.7v87.6l-325.4-212z"/>
				<path id="&lt;Path&gt;" class="s8" d="m1212.6 627.4c0 0-10.6-49.3 33.2-72.2 43.9-22.9 73 67.2-29.2 81z"/>
				<path id="&lt;Path&gt;" class="s8" d="m1248.8 563.9h4.5c0 0 40.3-53.6 9.8-83.5-30.5-30-49 51.4-14.3 83.5z"/>
				<path id="&lt;Path&gt;" class="s8" d="m1150.2 630c0 0 25.3-91.1-26.5-111.1-51.8-20-45.2 111.1 21.9 117.3z"/>
				<path id="&lt;Path&gt;" class="s8" d="m1093.8 559.6c0 0-2.7-65.1-33.2-48.4-30.5 16.7 2.7 66.8 33.2 57.2z"/>
			</g>
			<g id="&lt;Group&gt;">
				<g id="&lt;Group&gt;">
					<path id="&lt;Path&gt;" class="s10" d="m0 775.6l495.4 78.7 140.1 88.3 191.4 57.4h-826.9z"/>
				</g>
				<g id="&lt;Group&gt;">
					<path id="&lt;Path&gt;" class="s10" d="m288.4 584.3c-39.4-36.7-69.4 5.2-85.7 39.6 13.8-90.9 14.5-185.5-35.6-207.9 2.6-1.2 5.2-2.8 7.9-4.8 14.7-11.6 11.7-19.5 17.5-25.2-7.4 3.4-13.8-2.1-29.7 7.8-1.2 0.8-2.3 1.6-3.3 2.4 0.1-1.6 0.2-3.3 0-5.1-1.3-18.7-12-20.8-13.8-28.8-1.8 8-12.5 10.1-13.8 28.8-0.1 1.6-0.1 3 0 4.5q-1.2-0.9-2.5-1.8c-16-9.9-22.4-4.4-29.7-7.8 5.8 5.7 2.8 13.6 17.5 25.2 2.7 2.1 7.4 3.7 10.1 4.9-18.6 11.1-29.7 39.4-32.8 76.1-6.5-18.9-24.4-62.1-44.4-35-30.4 41.2 36.8 65.4 43.2 67.6-0.1 118.1 42 285.8 42 285.8h24c0 0 20.4-64.3 35.4-141.3 28.4-6 147.7-34.8 93.7-85z"/>
				</g>
				<g id="&lt;Group&gt;">
					<path id="&lt;Path&gt;" class="s11" d="m162.1 801.4l269.4 198.6h-131.5l-168.1-203.4z"/>
				</g>
				<g id="&lt;Group&gt;">
					<g id="&lt;Group&gt;">
						<g id="&lt;Group&gt;">
							<path id="&lt;Path&gt;" class="s10" d="m355.4 783.7q0-0.5 0-1l-43.6 39.4 42.2-49.3q0-0.4-0.1-0.8l-45.7 49.7 44.2-55.8c-0.7-2.8-1.7-5.8-2.9-8.7l-45.2 64 40.6-73.3q0-0.1-0.1-0.2l-43.8 73.1 40.2-78.5q-0.1-0.1-0.2-0.2l-42.7 78.4 38.1-83.7q-0.1-0.2-0.3-0.3l-40.5 83.7 34.5-88.9q-3.7-2.8-8.2-5.1l-29.6 93.6 22.9-96.5q-0.1-0.1-0.2-0.1l-25.4 96.3 20.5-97.9q-4.5-1.3-9.6-2l-14.2 99.5 5.2-100.3q-0.2 0-0.3 0l-7.9 99.9 1.4-99.8q-4.6 0.2-8.6 1.1l3.9 98.3-10-96.7q-0.2 0.1-0.5 0.1l7.2 96.2-12.6-94q-0.2 0-0.4 0.1l10.6 93.6-15.2-91.2q-0.2 0.1-0.3 0.2l13.1 90.8-20.8-85.3q-3 2.5-5.6 5.3l23.7 79.6-31.4-69.6q-2.1 3.3-3.8 6.6l31.6 62.6-36.5-51.5q-0.3 0.6-0.5 1.2l33.2 49.8-36.5-38.5c-0.2 0.9-0.3 1.5-0.3 1.7l31.8 36.2 5.7 6.4 46 5.5 6.7-4.9z"/>
						</g>
						<g id="&lt;Group&gt;">
							<path id="&lt;Path&gt;" class="s10" d="m355.6 793.2c0 0 0-0.6 0.1-1.6l-40.5 30.9z"/>
						</g>
					</g>
				</g>
				<g id="&lt;Group&gt;">
					<path id="&lt;Path&gt;" class="s11" d="m257.8 816.6l268.2 183.4h94.7l-309.1-174.9z"/>
				</g>
			</g>
		</g>
	</g>
</svg>