<?xml version="1.0" standalone="no"?>
<!DOCTYPE svg PUBLIC "-//W3C//DTD SVG 20010904//EN"
 "http://www.w3.org/TR/2001/REC-SVG-20010904/DTD/svg10.dtd">
<svg version="1.0" xmlns="http://www.w3.org/2000/svg"
 width="700.000000pt" height="700.000000pt" viewBox="0 0 700.000000 700.000000"
 preserveAspectRatio="xMidYMid meet">
<metadata>
Created by potrace 1.14, written by Peter Selinger 2001-2017
</metadata>
<g transform="translate(0.000000,700.000000) scale(0.100000,-0.100000)"
fill="#000000" stroke="none">
<path d="M2501 5800 c-247 -135 -415 -431 -405 -710 16 -396 285 -712 664
-779 49 -8 247 -7 293 2 227 44 435 197 548 403 27 48 29 56 13 49 -96 -39
-178 -56 -286 -60 -346 -10 -656 197 -777 520 -26 68 -28 76 -43 165 -10 61
-6 225 6 280 3 13 15 53 26 88 12 36 20 66 18 68 -2 1 -28 -10 -57 -26z"/>
<path d="M725 3947 c4 -95 15 -209 29 -317 68 -495 315 -1039 650 -1434 87
-103 291 -304 381 -377 285 -230 584 -394 935 -514 135 -46 394 -106 520 -121
25 -2 77 -9 115 -13 148 -18 515 -10 663 14 20 3 52 8 71 11 18 3 43 8 55 10
11 2 37 7 56 10 19 4 42 8 50 9 55 10 205 53 320 92 286 96 530 224 795 416
262 190 547 499 728 789 93 149 189 336 177 343 -10 6 -183 -1 -225 -9 -32 -6
-138 -17 -303 -31 -41 -4 -205 -8 -365 -10 -161 -2 -328 -6 -372 -10 -213 -16
-317 -26 -345 -30 -14 -2 -54 -7 -90 -10 -71 -6 -95 -9 -215 -24 -44 -6 -102
-13 -130 -17 -27 -3 -70 -10 -95 -14 -25 -5 -89 -7 -142 -6 -89 3 -106 7 -209
51 -62 26 -216 83 -343 126 -127 43 -288 101 -356 130 -193 80 -393 145 -647
209 -127 32 -248 61 -270 64 -71 12 -98 26 -133 74 -57 76 -269 285 -350 344
-143 104 -307 189 -490 251 -77 27 -248 71 -310 81 -19 3 -46 8 -60 10 -14 3
-42 7 -63 10 l-37 6 5 -113z"/>
</g>
</svg>
